<?xml version="1.0" encoding="utf-8"?>
<!-- Generator: Adobe Illustrator 16.0.0, SVG Export Plug-In . SVG Version: 6.00 Build 0)  -->
<!DOCTYPE svg PUBLIC "-//W3C//DTD SVG 1.1//EN" "http://www.w3.org/Graphics/SVG/1.1/DTD/svg11.dtd">
<svg version="1.1" id="Layer_1" xmlns="http://www.w3.org/2000/svg" xmlns:xlink="http://www.w3.org/1999/xlink" x="0px" y="0px"
	 width="81px" height="83px" viewBox="0 0 81 83" enable-background="new 0 0 81 83" xml:space="preserve">
<g>
	<path fill-rule="evenodd" clip-rule="evenodd" fill="#FFFFFF" d="M1.981,66.016c0-22.005,0-44.01,0-66.016C28.654,0,55.327,0,82,0
		c0,26.34,0,52.679,0,79.019c-22.339,0-44.677,0-67.015,0c2.882-1.896,6.138-3.405,8.581-5.759
		c8.634-8.321,17.06-16.862,25.405-25.473c2.388-2.464,4.607-3.385,8.24-2.988c12.946,1.415,24.92-10.005,23.127-22.059
		c-3.184,1.665-6.5,2.927-9.259,4.949c-4.544,3.329-8.271,2.416-12.422-0.747c-4.618-3.518-4.337-12.516,0.813-15.288
		C63.436,9.52,67.424,7.432,72,5.006c-8.438-5.151-16.143-5.542-23.705-1.291c-7.551,4.245-11.505,11-11.229,19.758
		c0.104,3.272-0.768,5.582-3.131,7.865c-8.145,7.87-16.213,15.831-24.027,24.027C6.877,58.544,4.602,62.443,1.981,66.016z"/>
	<path fill-rule="evenodd" clip-rule="evenodd" d="M1.981,66.016c2.62-3.572,23.81-26.807,31.954-34.677
		c2.363-2.284,3.234-4.593,3.131-7.865C36.79,14.715,40.744,7.959,48.295,3.715C55.857-0.537,63.562-0.145,72,5.006
		C67.424,7.432,56,14,56,14v11l11,5c0,0,10.154-5.595,13.338-7.26c1.793,12.054-10.181,23.474-23.127,22.059
		c-3.633-0.397-5.853,0.524-8.24,2.988C40.625,56.397,18.883,78.104,16,80C15,80-1,78,1.981,66.016z"/>
	<path fill-rule="evenodd" clip-rule="evenodd" fill="#FFFFFF" d="M1.981,69.016c1.932,4.736,5.28,8.058,10.002,10.003
		c-3.334,0-6.668,0-10.002,0C1.981,75.684,1.981,72.351,1.981,69.016z"/>
</g>
<g display="none">
	<path display="inline" fill-rule="evenodd" clip-rule="evenodd" d="M148.019,46.018c0-2,0-4,0-6
		c0.349-0.717-0.163-1.392,0.017-2.149c3.742-15.735,14.179-24.423,29.429-28.114c1.882-0.455,3.705-0.152,5.555-0.737
		c2.667,0,5.333,0,8,0c2.338,0.673,4.672,0.368,7.018,1.016c12.346,3.413,21.641,10.411,26.466,22.605
		c0.956,2.417,0.68,4.914,1.517,7.378c0,2,0,4,0,6c-1,8-4,16-8.852,19.119c-3.352,2.155-2.642,5.501-0.389,8.216
		c2.711,3.268,5.732,6.28,8.756,9.553c-0.878,0.747-1.692,1.438-2.506,2.13c-1.667,0-3.334,0-5.001,0
		c-6.435-2.107-12.837-4.318-19.32-6.263c-2.266-0.68-4.791-1.217-7.093-0.942c-16.804,2.001-34.482-7.077-41.063-21.513
		C149.053,53.032,149.019,50.018,148.019,46.018z M181.776,32.435c-4.232,0-8.135,0-12.227,0c0,4.336,0,8.353,0,12.401
		c2.007,0.222,3.628,0.401,6.445,0.713c-2.716,4.958-5.101,9.313-7.83,14.296C180.225,59.91,183.895,51.735,181.776,32.435z
		 M191.092,44.827c2.188,0.274,3.852,0.483,4.846,0.608c2.186,6.573-7.569,8.268-4.542,14.616
		c11.141-1.039,14.372-9.91,11.63-27.606c-3.895,0-7.8,0-11.935,0C191.092,36.699,191.092,40.631,191.092,44.827z"/>
	<path fill-rule="evenodd" clip-rule="evenodd" fill="#FFFFFF" d="M147,46.009c1.164,3.438,2.042,7.005,3.541,10.291
		c6.581,14.436,24.259,23.514,41.063,21.513c2.302-0.274,4.827,0.262,7.093,0.942c6.483,1.944,12.886,4.156,19.32,6.263
		c-23.672,0-47.344,0-71.017,0C147,72.015,147,59.012,147,46.009z"/>
	<path fill-rule="evenodd" clip-rule="evenodd" fill="#FFFFFF" d="M183.008,8c-1.85,0.585-3.673,1.282-5.555,1.737
		c-15.25,3.691-25.687,12.379-29.429,28.114c-0.18,0.757-0.676,1.439-1.025,2.156c0-10.669,0-21.338,0-32.007
		C159.003,8,171.006,8,183.008,8z"/>
	<path fill-rule="evenodd" clip-rule="evenodd" fill="#FFFFFF" d="M227.019,40.007c-0.837-2.464-1.571-4.969-2.527-7.386
		c-4.825-12.195-14.12-19.192-26.466-22.605c-2.345-0.648-4.677-1.343-7.016-2.016c12.003,0,24.005,0,36.008,0
		C227.019,18.669,227.019,29.338,227.019,40.007z"/>
	<path fill-rule="evenodd" clip-rule="evenodd" fill="#FFFFFF" d="M223.018,85.018c0.814-0.692,1.628-1.384,2.506-2.13
		c-3.024-3.272-6.045-6.285-8.756-9.553c-2.253-2.715-1.859-4.926,0.389-8.216c4.014-5.873,6.649-12.688,9.862-19.11
		c0,13.003,0,26.006,0,39.009C225.685,85.018,224.352,85.018,223.018,85.018z"/>
	<path display="inline" fill-rule="evenodd" clip-rule="evenodd" fill="#FFFFFF" d="M181.766,32.417
		c2.119,19.3-1.551,27.476-13.611,27.41c2.729-4.983,5.114-9.337,7.83-14.296c-2.817-0.312-4.438-0.491-6.445-0.713
		c0-4.048,0-8.064,0-12.401C173.63,32.417,177.533,32.417,181.766,32.417z"/>
	<path display="inline" fill-rule="evenodd" clip-rule="evenodd" fill="#FFFFFF" d="M191.082,44.81c0-4.196,0-8.128,0-12.383
		c4.135,0,8.04,0,11.935,0c2.742,17.697-0.489,26.567-11.63,27.606c-3.027-6.348,6.728-8.043,4.542-14.616
		C194.933,45.293,193.269,45.084,191.082,44.81z"/>
</g>
<g display="none">
	<path display="inline" fill-rule="evenodd" clip-rule="evenodd" d="M382,44c0,3.001,0,6,0,9c-0.403,1.242,0.116,2.456-0.196,3.719
		c-4.071,16.45-14.198,26.885-30.698,31.05c-1.073,0.271-2.077,0.815-3.113,1.231c-3.334,0-6.668,0-10.002,0
		c-0.232-0.225-0.435-0.597-0.703-0.653C318.592,84.386,307.764,73.713,304,55c-0.094-0.464,0.229-1.563,0-2c0-3,0-5.999,0-9
		c0.569-1.706,0.229-3.393,0.674-5.13c4.598-17.92,20.555-30.466,38.568-30.278c18.037,0.188,33.531,12.532,38.062,30.277
		C381.748,40.607,381.429,42.294,382,44z M343.793,66.745c-0.414-0.151-0.828-0.302-1.24-0.453c0.354-1.531,0.634-3.084,1.075-4.59
		c1.687-5.745,3.532-11.446,5.104-17.221c1.08-3.966-0.873-6.696-4.387-6.615c-3.941,0.091-9.482,5.147-10.504,9.586
		c0.358,0.379,0.717,0.759,1.074,1.139c1.154-2.272,2.308-4.544,3.462-6.816c0.608,0.504,1.218,1.008,1.827,1.512
		c-0.33,1.408-0.594,2.833-1,4.219c-1.683,5.743-3.521,11.441-5.08,17.217c-1.119,4.148,0.932,6.709,4.918,6.578
		c4.451-0.146,9.134-4.697,9.685-9.719C346.959,63.433,345.375,65.089,343.793,66.745z M353.588,31.125
		c0.01-0.697,0.02-1.394,0.029-2.091c-1.828-1.199-3.697-3.372-5.471-3.298c-1.501,0.063-4.016,2.725-4.02,4.243
		c-0.006,1.552,2.427,4.279,3.92,4.369C349.822,34.455,351.734,32.3,353.588,31.125z"/>
	<path display="inline" fill-rule="evenodd" clip-rule="evenodd" fill="#FFFFFF" d="M383,43.99
		c-0.571-1.706-1.252-3.383-1.696-5.121c-4.53-17.745-20.024-30.088-38.062-30.277c-18.014-0.188-33.971,12.357-38.568,30.278
		c-0.445,1.737-1.123,3.415-1.692,5.12c0-11.963,0-23.927,0-35.949c26.673,0,53.346,0,80.019,0C383,20.063,383,32.027,383,43.99z"/>
	<path display="inline" fill-rule="evenodd" clip-rule="evenodd" fill="#FFFFFF" d="M302.981,52.992
		c0.229,0.437,0.577,0.849,0.671,1.313c3.764,18.713,14.939,30.081,33.635,34.042c0.269,0.057,0.471,0.429,0.703,0.653
		c-11.67,0-23.34,0-35.009,0C302.981,76.998,302.981,64.995,302.981,52.992z"/>
	<path display="inline" fill-rule="evenodd" clip-rule="evenodd" fill="#FFFFFF" d="M347.992,89c1.036-0.417,2.04-0.96,3.113-1.231
		c16.5-4.165,26.627-14.6,30.698-31.05c0.313-1.263,0.793-2.485,1.196-3.727c0,12.003,0,24.006,0,36.008
		C371.33,89,359.661,89,347.992,89z"/>
	<path display="inline" fill-rule="evenodd" clip-rule="evenodd" fill="#FFFFFF" d="M343.793,66.745
		c1.582-1.656,3.166-3.313,4.935-5.163c-0.551,5.022-5.233,9.573-9.685,9.719c-3.986,0.131-6.037-2.429-4.918-6.578
		c1.559-5.775,3.397-11.474,5.08-17.217c0.406-1.385,0.67-2.811,1-4.219c-0.609-0.504-1.219-1.008-1.827-1.512
		c-1.154,2.272-2.308,4.544-3.462,6.816c-0.357-0.38-0.716-0.759-1.074-1.139c1.021-4.439,6.563-9.496,10.504-9.586
		c3.514-0.081,5.467,2.649,4.387,6.615c-1.572,5.775-3.418,11.476-5.104,17.221c-0.441,1.505-0.722,3.059-1.075,4.59
		C342.965,66.443,343.379,66.594,343.793,66.745z"/>
	<path display="inline" fill-rule="evenodd" clip-rule="evenodd" fill="#FFFFFF" d="M353.588,31.125
		c-1.854,1.175-3.766,3.33-5.541,3.223c-1.493-0.09-3.926-2.817-3.92-4.369c0.004-1.519,2.519-4.181,4.02-4.243
		c1.773-0.074,3.643,2.099,5.471,3.298C353.607,29.731,353.598,30.428,353.588,31.125z"/>
</g>
<g display="none">
	<path display="inline" fill-rule="evenodd" clip-rule="evenodd" d="M364,10.016c4.674,0,7.688,0,10,0
		c0.522,0.334,1.017-0.225,1.587-0.033c11.226,3.776,17.595,11.328,18.618,23.324c0.123,1.445,1.461,3.127,2.707,4.079
		c6.02,4.59,8.538,10.466,7.103,17.913c-1.977,10.258-12.647,15.82-24.278,13.254c1.773-4.304,5.104-8.733,5.055-13.124
		c-0.074-6.484-6.478-6.807-11.914-7.075c0-3.193,0.11-5.847-0.021-8.489c-0.373-7.524-4.776-11.229-12.967-11.032
		c-7.096,0.17-10.152,3.471-10.279,11.108c-0.018,0.998-0.098,2.007,0.01,2.994c0.412,3.788-0.621,5.677-5.047,5.863
		c-7.154,0.302-9.773,6.349-5.731,12.417c1.519,2.28,3.308,4.381,5.272,6.958c-1.523,0.407-2.424,0.806-3.349,0.872
		C328.49,69.918,323.566,66.867,318,55.011c0-2,0-4.001,0-6.001c1.656-3.002,2.878-6.39,5.098-8.893
		c1.975-2.228,3.143-4.08,3.223-7.218c0.162-6.349,5.822-11.762,11.946-11.734c2.526,0.011,5.05,0.981,7.774,1.557
		C349.883,15.366,356.575,12.717,364,10.016z"/>
	<path display="inline" fill-rule="evenodd" clip-rule="evenodd" fill="#FFFFFF" d="M318,55.011
		c5.566,11.856,10.49,14.908,22.765,14.032c0.925-0.066,1.825-0.465,3.349-0.872c-1.965-2.576-3.754-4.677-5.272-6.958
		c-4.042-6.068-1.423-12.115,5.731-12.417c4.426-0.187,5.459-2.075,5.047-5.863c-0.107-0.987-0.027-1.996-0.01-2.994
		c0.127-7.638,3.184-10.938,10.279-11.108c8.19-0.196,12.594,3.508,12.967,11.032c0.132,2.642,0.021,5.296,0.021,8.489
		c5.437,0.268,11.84,0.591,11.914,7.075c0.05,4.391-3.281,8.82-5.055,13.124c11.631,2.566,22.302-2.997,24.278-13.254
		c1.436-7.447-1.083-13.323-7.103-17.913c-1.246-0.952-2.584-2.634-2.707-4.079c-1.023-11.996-7.393-19.547-18.618-23.324
		c-0.57-0.192-1.052-0.648-1.573-0.982c10.335,0,20.67,0,31.007,0c0,22.672,0,45.344,0,68.016c-14.671,0-29.341,0-44.011,0
		c6.122-6.82,12.244-13.64,18.366-20.46c-0.276-0.513-0.552-1.026-0.828-1.538c-3.993,0-7.987,0-12.29,0
		c0-5.252-0.089-9.721,0.029-14.184c0.09-3.407-0.438-5.868-4.76-5.745c-4.084,0.115-5.615,2.057-5.523,5.934
		c0.107,4.581,0.025,9.166,0.025,14.022c-3.418,0-6.075-0.145-8.704,0.066c-1.165,0.093-2.545,0.666-3.282,1.501
		c-0.327,0.371,0.475,2.12,1.145,2.925c4.886,5.872,9.869,11.662,14.822,17.478c-14.003,0-28.006,0-42.01,0
		C318,69.681,318,62.346,318,55.011z"/>
	<path display="inline" fill-rule="evenodd" clip-rule="evenodd" d="M360.01,77.016c-4.953-5.816-9.937-11.606-14.822-17.478
		c-0.67-0.806-1.472-2.555-1.145-2.925c0.737-0.836,2.117-1.408,3.282-1.501c2.629-0.211,5.286-0.066,8.704-0.066
		c0-4.856,0.082-9.441-0.025-14.022c-0.092-3.877,1.439-5.819,5.523-5.934c4.322-0.123,4.85,2.338,4.76,5.745
		c-0.118,4.463-0.029,8.932-0.029,14.184c4.303,0,8.297,0,12.29,0c0.276,0.512,0.552,1.025,0.828,1.538
		c-6.122,6.82-12.244,13.64-18.366,20.46C360.676,77.016,360.344,77.016,360.01,77.016z"/>
	<path display="inline" fill-rule="evenodd" clip-rule="evenodd" fill="#FFFFFF" d="M364,10.016
		c-7.425,2.702-14.117,5.351-17.959,12.706c-2.725-0.576-5.248-1.545-7.774-1.557c-6.124-0.027-11.784,5.385-11.946,11.734
		c-0.08,3.138-1.248,4.99-3.223,7.218c-2.22,2.503-3.441,5.89-5.098,8.893c0-13.336,0-26.672,0-40.009
		C333.338,9,348.663,10.016,364,10.016z"/>
</g>
</svg>
